<svg width="550" height="142" viewBox="0 0 550 142" fill="none" xmlns="http://www.w3.org/2000/svg">
<path d="M23.7525 21.7502L61.5341 0L99.3156 21.7502L85.4253 29.7854L61.5341 16.0703L37.6428 29.7854L23.7525 21.7502ZM99.3156 49.1805L85.4253 41.1454L61.5341 54.8605L37.6428 41.1454L23.7525 49.1805V65.2507L47.6438 78.9659V106.396L61.5341 114.431L75.4244 106.396V78.9659L99.3156 65.2507V49.1805ZM99.3156 92.681V76.6107L85.4253 84.6459V100.716L99.3156 92.681ZM109.178 98.361L85.2866 112.076V128.146L123.068 106.396V62.8956L109.178 70.9307V98.361ZM95.2876 35.4654L109.178 43.5005V59.5707L123.068 51.5356V35.4654L109.178 27.4302L95.2876 35.4654ZM47.6438 117.895V133.965L61.5341 142L75.4244 133.965V117.895L61.5341 125.93L47.6438 117.895ZM23.7525 92.681L37.6428 100.716V84.6459L23.7525 76.6107V92.681ZM47.6438 35.4654L61.5341 43.5005L75.4244 35.4654L61.5341 27.4302L47.6438 35.4654ZM13.8903 43.5005L27.7806 35.4654L13.8903 27.4302L0 35.4654V51.5356L13.8903 59.5707V43.5005ZM13.8903 70.9307L0 62.8956V106.396L37.7815 128.146V112.076L13.8903 98.361V70.9307Z" fill="#F0B90B"/>
<path fill-rule="evenodd" clip-rule="evenodd" d="M216.403 32.8274H156.983V41.5144H202.944L155.219 103.61V109.172H216.403V100.486H168.678L216.403 38.3895V32.8274ZM235.115 32.8274H225.903V109.172H235.115V89.6059L251.118 73.4381L280.226 109.172H292.21L257.66 66.8754L291.418 32.8274H278.666L235.115 77.6908V32.8274Z" fill="#1E2026"/>
<path d="M375.637 88.8374V88.6116C375.637 77.9994 369.977 72.6933 360.808 69.1935C366.468 66.0325 371.222 61.065 371.222 52.1463V51.9205C371.222 39.5019 361.261 31.4863 345.074 31.4863H308.286V110.513H345.98C363.864 110.513 375.637 103.288 375.637 88.8374ZM353.903 55.0816C353.903 60.9521 349.036 63.4359 341.339 63.4359H325.265V46.7273H342.471C349.828 46.7273 353.903 49.6626 353.903 54.8558V55.0816ZM358.318 86.6924C358.318 92.563 353.677 95.2725 345.98 95.2725H325.265V77.8865H345.414C354.356 77.8865 358.318 81.1605 358.318 86.4666V86.6924Z" fill="#F0B90B"/>
<path d="M461.515 110.513V31.4863H444.309V80.1444L407.182 31.4863H391.108V110.513H408.314V60.2748L446.686 110.513H461.515Z" fill="#F0B90B"/>
<path d="M549.019 88.8374V88.6116C549.019 77.9994 543.359 72.6933 534.19 69.1935C539.85 66.0325 544.604 61.065 544.604 52.1463V51.9205C544.604 39.5019 534.643 31.4863 518.456 31.4863H481.668V110.513H519.362C537.246 110.513 549.019 103.288 549.019 88.8374ZM527.285 55.0816C527.285 60.9521 522.418 63.4359 514.721 63.4359H498.647V46.7273H515.853C523.21 46.7273 527.285 49.6626 527.285 54.8558V55.0816ZM531.7 86.6924C531.7 92.563 527.059 95.2725 519.362 95.2725H498.647V77.8865H518.796C527.738 77.8865 531.7 81.1605 531.7 86.4666V86.6924Z" fill="#F0B90B"/>
</svg>
