<svg style="padding: 2em 3em" width="404" height="300" viewBox="0 0 101 28" fill="none" xmlns="http://www.w3.org/2000/svg">
  <path d="M4.36782 4.99962L11.3154 1L18.263 4.99962L15.7088 6.47719L11.3154 3.95514L6.92209 6.47719L4.36782 4.99962ZM18.263 10.0437L15.7088 8.56617L11.3154 11.0882L6.92209 8.56617L4.36782 10.0437V12.9989L8.76115 15.5209V20.565L11.3154 22.0426L13.8697 20.565V15.5209L18.263 12.9989V10.0437ZM18.263 18.043V15.0878L15.7088 16.5654V19.5205L18.263 18.043ZM20.0766 19.0875L15.6832 21.6095V24.5647L22.6308 20.565V12.5658L20.0766 14.0434V19.0875ZM17.5223 7.52168L20.0766 8.99925V11.9544L22.6308 10.4768V7.52168L20.0766 6.04411L17.5223 7.52168ZM8.76115 22.6795V25.6346L11.3154 27.1122L13.8697 25.6346V22.6795L11.3154 24.1571L8.76115 22.6795ZM4.36782 18.043L6.92209 19.5205V16.5654L4.36782 15.0878V18.043ZM8.76115 7.52168L11.3154 8.99925L13.8697 7.52168L11.3154 6.04411L8.76115 7.52168ZM2.55427 8.99925L5.10854 7.52168L2.55427 6.04411L0 7.52168V10.4768L2.55427 11.9544V8.99925ZM2.55427 14.0434L0 12.5658V20.565L6.9476 24.5647V21.6095L2.55427 19.0875V14.0434Z" fill="#F0B90B"/>
  <path fill-rule="evenodd" clip-rule="evenodd" d="M39.7765 7.03662H28.8674V8.61321H37.3352L28.543 20.067V21.0756H39.7765V19.499H30.9843L39.7765 8.04526V7.03662ZM43.219 7.03662H41.547V21.0756H43.219V17.4783L46.1754 14.488L51.5348 21.0756H53.7099L47.3626 13.2956L53.5608 7.03662H51.2472L43.219 15.3168V7.03662Z" fill="#F1F2F3"/>
  <path d="M69.051 17.3363V17.2947C69.051 15.3433 68.0103 14.3675 66.3243 13.724C67.365 13.1427 68.2393 12.2292 68.2393 10.5892V10.5476C68.2393 8.26402 66.4075 6.79004 63.4309 6.79004H56.666V21.3222H63.5975C66.8863 21.3222 69.051 19.9936 69.051 17.3363ZM65.0545 11.1289C65.0545 12.2085 64.1595 12.6652 62.744 12.6652H59.7883V9.59268H62.9522C64.3052 9.59268 65.0545 10.1324 65.0545 11.0874V11.1289ZM65.8663 16.9418C65.8663 18.0213 65.0129 18.5196 63.5975 18.5196H59.7883V15.3225H63.4934C65.1378 15.3225 65.8663 15.9246 65.8663 16.9003V16.9418Z" fill="#F0B90B"/>
  <path d="M84.8431 21.3222V6.79004H81.6792V15.7377L74.8518 6.79004H71.8961V21.3222H75.06V12.0839L82.1163 21.3222H84.8431Z" fill="#F0B90B"/>
  <path d="M100.934 17.3363V17.2947C100.934 15.3433 99.8933 14.3675 98.2073 13.724C99.248 13.1427 100.122 12.2292 100.122 10.5892V10.5476C100.122 8.26402 98.2905 6.79004 95.3139 6.79004H88.549V21.3222H95.4805C98.7693 21.3222 100.934 19.9936 100.934 17.3363ZM96.9375 11.1289C96.9375 12.2085 96.0425 12.6652 94.627 12.6652H91.6713V9.59268H94.8352C96.1882 9.59268 96.9375 10.1324 96.9375 11.0874V11.1289ZM97.7493 16.9418C97.7493 18.0213 96.8959 18.5196 95.4805 18.5196H91.6713V15.3225H95.3764C97.0208 15.3225 97.7493 15.9246 97.7493 16.9003V16.9418Z" fill="#F0B90B"/>
</svg>
